<?xml version="1.0" encoding="UTF-8" standalone="no"?>
<!-- Generator: Adobe Illustrator 24.3.0, SVG Export Plug-In . SVG Version: 6.00 Build 0)  -->

<svg
   version="1.1"
   id="Layer_1"
   x="0px"
   y="0px"
   viewBox="0 0 238.3 359.60002"
   xml:space="preserve"
   sodipodi:docname="sddi-icon-color.svg"
   width="238.3"
   height="359.60001"
   inkscape:version="1.2.2 (b0a84865, 2022-12-01)"
   xmlns:inkscape="http://www.inkscape.org/namespaces/inkscape"
   xmlns:sodipodi="http://sodipodi.sourceforge.net/DTD/sodipodi-0.dtd"
   xmlns="http://www.w3.org/2000/svg"
   xmlns:svg="http://www.w3.org/2000/svg"><defs
   id="defs114" /><sodipodi:namedview
   id="namedview112"
   pagecolor="#ffffff"
   bordercolor="#666666"
   borderopacity="1.0"
   inkscape:showpageshadow="2"
   inkscape:pageopacity="0.0"
   inkscape:pagecheckerboard="0"
   inkscape:deskcolor="#d1d1d1"
   showgrid="false"
   inkscape:zoom="0.52761012"
   inkscape:cx="507.95083"
   inkscape:cy="221.75465"
   inkscape:window-width="1591"
   inkscape:window-height="480"
   inkscape:window-x="0"
   inkscape:window-y="25"
   inkscape:window-maximized="0"
   inkscape:current-layer="Layer_1" />
<style
   type="text/css"
   id="style9">
	.st0{fill:#2EA9E1;}
	.st1{fill:#78CCCB;}
	.st2{fill:#A09F9F;}
</style>
<g
   id="g109"
   transform="translate(0,-1.3)">
	
	
	
	
	<path
   class="st1"
   d="m 152.5,180.8 c 0,52 -42.3,94.2 -94.3,94.2 H 0 v -20.4 h 58.2 c 40.7,0 73.9,-33.1 73.9,-73.8 z"
   id="path19" />
	<path
   class="st1"
   d="m 195.4,180.8 c 0,75.7 -61.6,137.1 -137.2,137.1 H 0 v -20.4 h 58.2 c 64.4,0 116.8,-52.4 116.8,-116.7 z"
   id="path21" />
	<path
   class="st1"
   d="m 238.3,180.8 c 0,99.3 -80.8,180.1 -180.1,180.1 H 0 v -20.4 h 58.2 c 88.1,0 159.7,-71.6 159.7,-159.6 h 20.4 z"
   id="path23" />
	<path
   class="st0"
   d="m 238.3,87 v 20.4 h -58.2 c -40.7,0 -73.9,33.2 -73.9,73.9 H 85.8 c 0,-52 42.3,-94.3 94.3,-94.3 z"
   id="path25" />
	<path
   class="st0"
   d="M 238.3,44.2 V 64.6 H 180.1 C 115.7,64.6 63.3,117 63.3,181.3 H 42.9 c 0,-75.7 61.6,-137.1 137.2,-137.1 z"
   id="path27" />
	<path
   class="st0"
   d="M 238.3,1.3 V 21.7 H 180.1 C 92,21.7 20.4,93.3 20.4,181.3 H 0 C 0,82 80.8,1.3 180.1,1.3 Z"
   id="path29" />
	
</g>
</svg>
